<svg viewBox="0 0 32 32" xmlns="http://www.w3.org/2000/svg" width="32" height="32"><g><g><path d="M16 0C7.163 0 0 7.163 0 16c0 8.836 7.163 16 16 16s16-7.164 16-16c0-8.837-7.163-16-16-16z" fill="#333"/></g><path d="M18.226 8.886c-1.59.579-2.595 2.071-2.481 3.704l.038.63-.636-.077c-2.315-.296-4.338-1.299-6.056-2.984l-.84-.836-.215.617c-.458 1.376-.165 2.83.789 3.808.509.54.394.617-.483.296-.305-.103-.573-.18-.598-.141-.089.09.216 1.26.458 1.724.331.644 1.005 1.273 1.743 1.647l.624.296-.739.011c-.712 0-.738.013-.661.284.254.836 1.259 1.724 2.379 2.11l.789.27-.687.412a7.122 7.122 0 0 1-3.41.951c-.573.013-1.044.064-1.044.103 0 .128 1.553.848 2.455 1.132 2.71.836 5.929.475 8.346-.952 1.718-1.016 3.435-3.036 4.237-4.992.433-1.041.865-2.945.865-3.858 0-.592.038-.669.75-1.376.42-.412.814-.862.891-.99.128-.245.114-.245-.534-.026-1.081.386-1.234.335-.699-.244.394-.412.865-1.158.865-1.376 0-.038-.191.026-.407.141-.229.129-.738.322-1.12.437l-.687.219-.623-.426c-.344-.231-.826-.489-1.081-.566-.65-.18-1.642-.154-2.228.052z" fill="#FFF"/></g></svg>